<svg width="900" height="620" viewBox="0 0 900 620" fill="none" xmlns="http://www.w3.org/2000/svg">
<rect width="900" height="620" rx="40" fill="#EEF7FF"/>
<circle cx="760" cy="110" r="140" fill="#BAE6FD" opacity=".65"/>
<circle cx="160" cy="520" r="180" fill="#DBEAFE" opacity=".85"/>
<rect x="90" y="82" width="720" height="456" rx="28" fill="white" stroke="#BFDBFE" stroke-width="3"/>
<rect x="125" y="120" width="275" height="365" rx="22" fill="#F8FAFC" stroke="#DBEAFE" stroke-width="2"/>
<rect x="150" y="148" width="120" height="16" rx="8" fill="#60A5FA"/>
<rect x="150" y="185" width="205" height="10" rx="5" fill="#CBD5E1"/>
<rect x="150" y="210" width="176" height="10" rx="5" fill="#CBD5E1"/>
<rect x="150" y="256" width="185" height="44" rx="14" fill="#DBEAFE"/>
<rect x="150" y="320" width="210" height="44" rx="14" fill="#E0F2FE"/>
<rect x="150" y="384" width="160" height="44" rx="14" fill="#DBEAFE"/>
<rect x="465" y="140" width="280" height="82" rx="22" fill="#EFF6FF" stroke="#BFDBFE" stroke-width="2"/>
<rect x="490" y="164" width="145" height="12" rx="6" fill="#2563EB"/>
<rect x="490" y="192" width="215" height="9" rx="4.5" fill="#93C5FD"/>
<rect x="465" y="268" width="280" height="82" rx="22" fill="#F0FDFA" stroke="#99F6E4" stroke-width="2"/>
<rect x="490" y="292" width="112" height="12" rx="6" fill="#0F766E"/>
<rect x="490" y="320" width="205" height="9" rx="4.5" fill="#5EEAD4"/>
<rect x="465" y="396" width="280" height="82" rx="22" fill="#F5F3FF" stroke="#DDD6FE" stroke-width="2"/>
<rect x="490" y="420" width="130" height="12" rx="6" fill="#7C3AED"/>
<rect x="490" y="448" width="220" height="9" rx="4.5" fill="#C4B5FD"/>
<path d="M405 275 C430 275 430 180 455 180" stroke="#60A5FA" stroke-width="5" stroke-linecap="round"/>
<path d="M405 305 C430 305 430 310 455 310" stroke="#14B8A6" stroke-width="5" stroke-linecap="round"/>
<path d="M405 335 C430 335 430 438 455 438" stroke="#8B5CF6" stroke-width="5" stroke-linecap="round"/>
</svg>
