<svg width="900" height="620" viewBox="0 0 900 620" fill="none" xmlns="http://www.w3.org/2000/svg">
<rect width="900" height="620" rx="40" fill="#F5F3FF"/>
<circle cx="205" cy="150" r="145" fill="#DDD6FE" opacity=".8"/>
<circle cx="760" cy="505" r="180" fill="#EDE9FE"/>
<rect x="95" y="90" width="710" height="440" rx="30" fill="white" stroke="#DDD6FE" stroke-width="3"/>
<rect x="142" y="145" width="170" height="235" rx="24" fill="#FAFAFF" stroke="#DDD6FE" stroke-width="2"/>
<rect x="170" y="175" width="78" height="14" rx="7" fill="#7C3AED"/>
<rect x="170" y="218" width="115" height="10" rx="5" fill="#C4B5FD"/>
<rect x="170" y="245" width="92" height="10" rx="5" fill="#C4B5FD"/>
<rect x="170" y="288" width="112" height="52" rx="16" fill="#EDE9FE"/>
<rect x="390" y="145" width="120" height="120" rx="28" fill="#8B5CF6"/>
<path d="M450 178v54M423 205h54" stroke="white" stroke-width="10" stroke-linecap="round"/>
<rect x="390" y="355" width="120" height="120" rx="28" fill="#A855F7"/>
<path d="M425 415l18 18 36-48" stroke="white" stroke-width="10" stroke-linecap="round" stroke-linejoin="round"/>
<rect x="596" y="170" width="160" height="70" rx="22" fill="#F8FAFC" stroke="#DDD6FE" stroke-width="2"/>
<rect x="622" y="195" width="105" height="12" rx="6" fill="#7C3AED"/>
<rect x="596" y="380" width="160" height="70" rx="22" fill="#F8FAFC" stroke="#DDD6FE" stroke-width="2"/>
<rect x="622" y="405" width="82" height="12" rx="6" fill="#7C3AED"/>
<path d="M312 260h58" stroke="#8B5CF6" stroke-width="5" stroke-linecap="round"/>
<path d="M510 205h70" stroke="#8B5CF6" stroke-width="5" stroke-linecap="round"/>
<path d="M510 415h70" stroke="#A855F7" stroke-width="5" stroke-linecap="round"/>
<path d="M450 265v70" stroke="#C4B5FD" stroke-width="5" stroke-linecap="round"/>
</svg>
