<svg width="900" height="620" viewBox="0 0 900 620" fill="none" xmlns="http://www.w3.org/2000/svg">
<rect width="900" height="620" rx="40" fill="#F7FEE7"/>
<circle cx="180" cy="510" r="160" fill="#D9F99D" opacity=".75"/>
<circle cx="770" cy="130" r="150" fill="#FED7AA" opacity=".55"/>
<rect x="95" y="88" width="710" height="444" rx="30" fill="white" stroke="#D9F99D" stroke-width="3"/>
<rect x="130" y="130" width="250" height="350" rx="24" fill="#FAFAFA" stroke="#E2E8F0" stroke-width="2"/>
<path d="M165 420 C205 360 220 385 250 310 C275 247 330 240 348 180" stroke="#84CC16" stroke-width="8" stroke-linecap="round"/>
<circle cx="250" cy="310" r="10" fill="#F97316"/>
<circle cx="305" cy="238" r="10" fill="#F97316"/>
<circle cx="190" cy="385" r="10" fill="#F97316"/>
<rect x="440" y="135" width="290" height="68" rx="20" fill="#F0FDF4"/>
<rect x="465" y="160" width="145" height="12" rx="6" fill="#65A30D"/>
<rect x="440" y="238" width="290" height="68" rx="20" fill="#FFF7ED"/>
<rect x="465" y="263" width="185" height="12" rx="6" fill="#EA580C"/>
<rect x="440" y="341" width="290" height="95" rx="20" fill="#F8FAFC"/>
<rect x="465" y="370" width="220" height="10" rx="5" fill="#CBD5E1"/>
<rect x="465" y="398" width="130" height="10" rx="5" fill="#CBD5E1"/>
<rect x="465" y="464" width="190" height="18" rx="9" fill="#84CC16"/>
</svg>
